<svg xmlns="http://www.w3.org/2000/svg">
    <symbol id="symbol-check" viewBox="0 0 448 448">
       <title/>  <path d="M417.75 141.5c0 6.25-2.5 12.5-7 17l-215 215c-4.5 4.5-10.75 7-17 7s-12.5-2.5-17-7l-124.5-124.5c-4.5-4.5-7-10.75-7-17s2.5-12.5 7-17l34-34c4.5-4.5 10.75-7 17-7s12.5 2.5 17 7l73.5 73.75 164-164.25c4.5-4.5 10.75-7 17-7s12.5 2.5 17 7l34 34c4.5 4.5 7 10.75 7 17z"/> 
    </symbol>
    <symbol id="symbol-play" viewBox="0 0 354 448">
        <path d="M346 231.75l-332 184.5c-7.75 4.25-14 0.5-14-8.25v-368c0-8.75 6.25-12.5 14-8.25l332 184.5c7.75 4.25 7.75 11.25 0 15.5z"/> 
    </symbol>
    <symbol id="symbol-sort" viewBox="0 0 256 448">
        <path d="M256 272c0 4.25-1.75 8.25-4.75 11.25l-112 112c-3 3-7 4.75-11.25 4.75s-8.25-1.75-11.25-4.75l-112-112c-3-3-4.75-7-4.75-11.25 0-8.75 7.25-16 16-16h224c8.75 0 16 7.25 16 16zM256 176c0 8.75-7.25 16-16 16h-224c-8.75 0-16-7.25-16-16 0-4.25 1.75-8.25 4.75-11.25l112-112c3-3 7-4.75 11.25-4.75s8.25 1.75 11.25 4.75l112 112c3 3 4.75 7 4.75 11.25z"/> 
    </symbol>
    <symbol id="symbol-xml" viewBox="0 0 640 512">
        <path d="M416 368l48 48 160-160-160-160-48 48 112 112z"/> <path d="M224 144l-48-48-160 160 160 160 48-48-112-112z"/> <path d="M350.649 75.26l34.734 9.472-95.993 352.013-34.734-9.472 95.994-352.013z"/> 
    </symbol></svg>